<svg xmlns="http://www.w3.org/2000/svg" xmlns:xlink="http://www.w3.org/1999/xlink" version="1.1" class="marks" width="475" height="446" viewBox="0 0 475 446"><rect width="475" height="446" fill="white"/><g fill="none" stroke-miterlimit="10" transform="translate(44,27)"><g class="mark-group role-frame root" role="graphics-object" aria-roledescription="group mark container"><g transform="translate(0,0)"><path class="background" aria-hidden="true" d="M0.5,0.5h300v300h-300Z" stroke="#ddd"/><g><g class="mark-group role-axis" aria-hidden="true"><g transform="translate(0.5,0.5)"><path class="background" aria-hidden="true" d="M0,0h0v0h0Z" pointer-events="none"/><g><g class="mark-rule role-axis-grid" pointer-events="none"><line transform="translate(0,300)" x2="300" y2="0" stroke="#ddd" stroke-width="1" opacity="1"/><line transform="translate(0,267)" x2="300" y2="0" stroke="#ddd" stroke-width="1" opacity="1"/><line transform="translate(0,233)" x2="300" y2="0" stroke="#ddd" stroke-width="1" opacity="1"/><line transform="translate(0,200)" x2="300" y2="0" stroke="#ddd" stroke-width="1" opacity="1"/><line transform="translate(0,167)" x2="300" y2="0" stroke="#ddd" stroke-width="1" opacity="1"/><line transform="translate(0,133)" x2="300" y2="0" stroke="#ddd" stroke-width="1" opacity="1"/><line transform="translate(0,100)" x2="300" y2="0" stroke="#ddd" stroke-width="1" opacity="1"/><line transform="translate(0,67)" x2="300" y2="0" stroke="#ddd" stroke-width="1" opacity="1"/><line transform="translate(0,33)" x2="300" y2="0" stroke="#ddd" stroke-width="1" opacity="1"/><line transform="translate(0,0)" x2="300" y2="0" stroke="#ddd" stroke-width="1" opacity="1"/></g></g><path class="foreground" aria-hidden="true" d="" pointer-events="none" display="none"/></g></g><g class="mark-group role-axis" role="graphics-symbol" aria-roledescription="axis" aria-label="X-axis titled 'Obesity Level' for a discrete scale with 7 values: Insufficient_Weight, Normal_Weight, Overweight_Level_I, Overweight_Level_II, Obesity_Type_I, Obesity_Type_II, Obesity_Type_III"><g transform="translate(0.5,300.5)"><path class="background" aria-hidden="true" d="M0,0h0v0h0Z" pointer-events="none"/><g><g class="mark-rule role-axis-tick" pointer-events="none"><line transform="translate(21,0)" x2="0" y2="5" stroke="#888" stroke-width="1" opacity="1"/><line transform="translate(64,0)" x2="0" y2="5" stroke="#888" stroke-width="1" opacity="1"/><line transform="translate(107,0)" x2="0" y2="5" stroke="#888" stroke-width="1" opacity="1"/><line transform="translate(149,0)" x2="0" y2="5" stroke="#888" stroke-width="1" opacity="1"/><line transform="translate(192,0)" x2="0" y2="5" stroke="#888" stroke-width="1" opacity="1"/><line transform="translate(235,0)" x2="0" y2="5" stroke="#888" stroke-width="1" opacity="1"/><line transform="translate(278,0)" x2="0" y2="5" stroke="#888" stroke-width="1" opacity="1"/></g><g class="mark-text role-axis-label" pointer-events="none"><text text-anchor="end" transform="translate(20.928571428571427,7) rotate(270) translate(0,3)" font-family="sans-serif" font-size="10px" fill="#000" opacity="1">Insufficient_Weight</text><text text-anchor="end" transform="translate(63.78571428571428,7) rotate(270) translate(0,3)" font-family="sans-serif" font-size="10px" fill="#000" opacity="1">Normal_Weight</text><text text-anchor="end" transform="translate(106.64285714285714,7) rotate(270) translate(0,3)" font-family="sans-serif" font-size="10px" fill="#000" opacity="1">Overweight_Level_I</text><text text-anchor="end" transform="translate(149.49999999999997,7) rotate(270) translate(0,3)" font-family="sans-serif" font-size="10px" fill="#000" opacity="1">Overweight_Level_II</text><text text-anchor="end" transform="translate(192.35714285714283,7) rotate(270) translate(0,3)" font-family="sans-serif" font-size="10px" fill="#000" opacity="1">Obesity_Type_I</text><text text-anchor="end" transform="translate(235.2142857142857,7) rotate(270) translate(0,3)" font-family="sans-serif" font-size="10px" fill="#000" opacity="1">Obesity_Type_II</text><text text-anchor="end" transform="translate(278.07142857142856,7) rotate(270) translate(0,3)" font-family="sans-serif" font-size="10px" fill="#000" opacity="1">Obesity_Type_III</text></g><g class="mark-rule role-axis-domain" pointer-events="none"><line transform="translate(0,0)" x2="300" y2="0" stroke="#888" stroke-width="1" opacity="1"/></g><g class="mark-text role-axis-title" pointer-events="none"><text text-anchor="middle" transform="translate(150,111.162109375)" font-family="sans-serif" font-size="11px" font-weight="bold" fill="#000" opacity="1">Obesity Level</text></g></g><path class="foreground" aria-hidden="true" d="" pointer-events="none" display="none"/></g></g><g class="mark-group role-axis" role="graphics-symbol" aria-roledescription="axis" aria-label="Y-axis titled 'Weight (kg)' for a linear scale with values from 0 to 180"><g transform="translate(0.5,0.5)"><path class="background" aria-hidden="true" d="M0,0h0v0h0Z" pointer-events="none"/><g><g class="mark-rule role-axis-tick" pointer-events="none"><line transform="translate(0,300)" x2="-5" y2="0" stroke="#888" stroke-width="1" opacity="1"/><line transform="translate(0,267)" x2="-5" y2="0" stroke="#888" stroke-width="1" opacity="1"/><line transform="translate(0,233)" x2="-5" y2="0" stroke="#888" stroke-width="1" opacity="1"/><line transform="translate(0,200)" x2="-5" y2="0" stroke="#888" stroke-width="1" opacity="1"/><line transform="translate(0,167)" x2="-5" y2="0" stroke="#888" stroke-width="1" opacity="1"/><line transform="translate(0,133)" x2="-5" y2="0" stroke="#888" stroke-width="1" opacity="1"/><line transform="translate(0,100)" x2="-5" y2="0" stroke="#888" stroke-width="1" opacity="1"/><line transform="translate(0,67)" x2="-5" y2="0" stroke="#888" stroke-width="1" opacity="1"/><line transform="translate(0,33)" x2="-5" y2="0" stroke="#888" stroke-width="1" opacity="1"/><line transform="translate(0,0)" x2="-5" y2="0" stroke="#888" stroke-width="1" opacity="1"/></g><g class="mark-text role-axis-label" pointer-events="none"><text text-anchor="end" transform="translate(-7,303)" font-family="sans-serif" font-size="10px" fill="#000" opacity="1">0</text><text text-anchor="end" transform="translate(-7,269.66666666666663)" font-family="sans-serif" font-size="10px" fill="#000" opacity="1">20</text><text text-anchor="end" transform="translate(-7,236.33333333333334)" font-family="sans-serif" font-size="10px" fill="#000" opacity="1">40</text><text text-anchor="end" transform="translate(-7,203.00000000000003)" font-family="sans-serif" font-size="10px" fill="#000" opacity="1">60</text><text text-anchor="end" transform="translate(-7,169.66666666666669)" font-family="sans-serif" font-size="10px" fill="#000" opacity="1">80</text><text text-anchor="end" transform="translate(-7,136.33333333333331)" font-family="sans-serif" font-size="10px" fill="#000" opacity="1">100</text><text text-anchor="end" transform="translate(-7,103.00000000000001)" font-family="sans-serif" font-size="10px" fill="#000" opacity="1">120</text><text text-anchor="end" transform="translate(-7,69.66666666666666)" font-family="sans-serif" font-size="10px" fill="#000" opacity="1">140</text><text text-anchor="end" transform="translate(-7,36.33333333333335)" font-family="sans-serif" font-size="10px" fill="#000" opacity="1">160</text><text text-anchor="end" transform="translate(-7,3)" font-family="sans-serif" font-size="10px" fill="#000" opacity="1">180</text></g><g class="mark-rule role-axis-domain" pointer-events="none"><line transform="translate(0,300)" x2="0" y2="-300" stroke="#888" stroke-width="1" opacity="1"/></g><g class="mark-text role-axis-title" pointer-events="none"><text text-anchor="middle" transform="translate(-27.6845703125,150) rotate(-90) translate(0,-2)" font-family="sans-serif" font-size="11px" font-weight="bold" fill="#000" opacity="1">Weight (kg)</text></g></g><path class="foreground" aria-hidden="true" d="" pointer-events="none" display="none"/></g></g><g class="mark-symbol role-mark layer_0_layer_0_marks" role="graphics-object" aria-roledescription="symbol mark container"><path aria-label="Obesity Level: Overweight_Level_II; Weight (kg): 102; Obesity: Overweight_Level_II; Weight: 102" role="graphics-symbol" aria-roledescription="point" transform="translate(149.99999999999997,130)" d="M2.739,0A2.739,2.739,0,1,1,-2.739,0A2.739,2.739,0,1,1,2.739,0" stroke="#1A9F3D" stroke-width="2" opacity="0.7"/><path aria-label="Obesity Level: Obesity_Type_II; Weight (kg): 93; Obesity: Obesity_Type_II; Weight: 93" role="graphics-symbol" aria-roledescription="point" transform="translate(235.7142857142857,144.99999999999997)" d="M2.739,0A2.739,2.739,0,1,1,-2.739,0A2.739,2.739,0,1,1,2.739,0" stroke="#004D1D" stroke-width="2" opacity="0.7"/><path aria-label="Obesity Level: Overweight_Level_II; Weight (kg): 60; Obesity: Overweight_Level_II; Weight: 60" role="graphics-symbol" aria-roledescription="point" transform="translate(149.99999999999997,200.00000000000003)" d="M2.739,0A2.739,2.739,0,1,1,-2.739,0A2.739,2.739,0,1,1,2.739,0" stroke="#1A9F3D" stroke-width="2" opacity="0.7"/><path aria-label="Obesity Level: Overweight_Level_II; Weight (kg): 63; Obesity: Overweight_Level_II; Weight: 63" role="graphics-symbol" aria-roledescription="point" transform="translate(149.99999999999997,195)" d="M2.739,0A2.739,2.739,0,1,1,-2.739,0A2.739,2.739,0,1,1,2.739,0" stroke="#1A9F3D" stroke-width="2" opacity="0.7"/><path aria-label="Obesity Level: Obesity_Type_III; Weight (kg): 173; Obesity: Obesity_Type_III; Weight: 173" role="graphics-symbol" aria-roledescription="point" transform="translate(278.57142857142856,11.666666666666659)" d="M2.739,0A2.739,2.739,0,1,1,-2.739,0A2.739,2.739,0,1,1,2.739,0" stroke="#004D1D" stroke-width="2" opacity="0.7"/><path aria-label="Obesity Level: Overweight_Level_II; Weight (kg): 101.482054; Obesity: Overweight_Level_II; Weight: 101.482054" role="graphics-symbol" aria-roledescription="point" transform="translate(149.99999999999997,130.86324333333332)" d="M2.739,0A2.739,2.739,0,1,1,-2.739,0A2.739,2.739,0,1,1,2.739,0" stroke="#1A9F3D" stroke-width="2" opacity="0.7"/><path aria-label="Obesity Level: Overweight_Level_II; Weight (kg): 61.373868; Obesity: Overweight_Level_II; Weight: 61.373868" role="graphics-symbol" aria-roledescription="point" transform="translate(149.99999999999997,197.71022)" d="M2.739,0A2.739,2.739,0,1,1,-2.739,0A2.739,2.739,0,1,1,2.739,0" stroke="#1A9F3D" stroke-width="2" opacity="0.7"/><path aria-label="Obesity Level: Overweight_Level_II; Weight (kg): 63.65233; Obesity: Overweight_Level_II; Weight: 63.65233" role="graphics-symbol" aria-roledescription="point" transform="translate(149.99999999999997,193.91278333333335)" d="M2.739,0A2.739,2.739,0,1,1,-2.739,0A2.739,2.739,0,1,1,2.739,0" stroke="#1A9F3D" stroke-width="2" opacity="0.7"/><path aria-label="Obesity Level: Overweight_Level_II; Weight (kg): 101.544589; Obesity: Overweight_Level_II; Weight: 101.544589" role="graphics-symbol" aria-roledescription="point" transform="translate(149.99999999999997,130.75901833333333)" d="M2.739,0A2.739,2.739,0,1,1,-2.739,0A2.739,2.739,0,1,1,2.739,0" stroke="#1A9F3D" stroke-width="2" opacity="0.7"/><path aria-label="Obesity Level: Overweight_Level_II; Weight (kg): 60.117993; Obesity: Overweight_Level_II; Weight: 60.117993" role="graphics-symbol" aria-roledescription="point" transform="translate(149.99999999999997,199.803345)" d="M2.739,0A2.739,2.739,0,1,1,-2.739,0A2.739,2.739,0,1,1,2.739,0" stroke="#1A9F3D" stroke-width="2" opacity="0.7"/><path aria-label="Obesity Level: Overweight_Level_II; Weight (kg): 64.342459; Obesity: Overweight_Level_II; Weight: 64.342459" role="graphics-symbol" aria-roledescription="point" transform="translate(149.99999999999997,192.76256833333332)" d="M2.739,0A2.739,2.739,0,1,1,-2.739,0A2.739,2.739,0,1,1,2.739,0" stroke="#1A9F3D" stroke-width="2" opacity="0.7"/><path aria-label="Obesity Level: Overweight_Level_II; Weight (kg): 64.696248; Obesity: Overweight_Level_II; Weight: 64.696248" role="graphics-symbol" aria-roledescription="point" transform="translate(149.99999999999997,192.17292)" d="M2.739,0A2.739,2.739,0,1,1,-2.739,0A2.739,2.739,0,1,1,2.739,0" stroke="#1A9F3D" stroke-width="2" opacity="0.7"/><path aria-label="Obesity Level: Overweight_Level_II; Weight (kg): 62.894283; Obesity: Overweight_Level_II; Weight: 62.894283" role="graphics-symbol" aria-roledescription="point" transform="translate(149.99999999999997,195.176195)" d="M2.739,0A2.739,2.739,0,1,1,-2.739,0A2.739,2.739,0,1,1,2.739,0" stroke="#1A9F3D" stroke-width="2" opacity="0.7"/><path aria-label="Obesity Level: Overweight_Level_II; Weight (kg): 63.892071; Obesity: Overweight_Level_II; Weight: 63.892071" role="graphics-symbol" aria-roledescription="point" transform="translate(149.99999999999997,193.513215)" d="M2.739,0A2.739,2.739,0,1,1,-2.739,0A2.739,2.739,0,1,1,2.739,0" stroke="#1A9F3D" stroke-width="2" opacity="0.7"/><path aria-label="Obesity Level: Overweight_Level_II; Weight (kg): 63.715219; Obesity: Overweight_Level_II; Weight: 63.715219" role="graphics-symbol" aria-roledescription="point" transform="translate(149.99999999999997,193.80796833333335)" d="M2.739,0A2.739,2.739,0,1,1,-2.739,0A2.739,2.739,0,1,1,2.739,0" stroke="#1A9F3D" stroke-width="2" opacity="0.7"/><path aria-label="Obesity Level: Overweight_Level_II; Weight (kg): 62.269912; Obesity: Overweight_Level_II; Weight: 62.269912" role="graphics-symbol" aria-roledescription="point" transform="translate(149.99999999999997,196.21681333333333)" d="M2.739,0A2.739,2.739,0,1,1,-2.739,0A2.739,2.739,0,1,1,2.739,0" stroke="#1A9F3D" stroke-width="2" opacity="0.7"/><path aria-label="Obesity Level: Obesity_Type_II; Weight (kg): 98.490766; Obesity: Obesity_Type_II; Weight: 98.490766" role="graphics-symbol" aria-roledescription="point" transform="translate(235.7142857142857,135.84872333333334)" d="M2.739,0A2.739,2.739,0,1,1,-2.739,0A2.739,2.739,0,1,1,2.739,0" stroke="#004D1D" stroke-width="2" opacity="0.7"/><path aria-label="Obesity Level: Obesity_Type_II; Weight (kg): 98.66176; Obesity: Obesity_Type_II; Weight: 98.66176" role="graphics-symbol" aria-roledescription="point" transform="translate(235.7142857142857,135.56373333333335)" d="M2.739,0A2.739,2.739,0,1,1,-2.739,0A2.739,2.739,0,1,1,2.739,0" stroke="#004D1D" stroke-width="2" opacity="0.7"/><path aria-label="Obesity Level: Obesity_Type_II; Weight (kg): 97.582959; Obesity: Obesity_Type_II; Weight: 97.582959" role="graphics-symbol" aria-roledescription="point" transform="translate(235.7142857142857,137.361735)" d="M2.739,0A2.739,2.739,0,1,1,-2.739,0A2.739,2.739,0,1,1,2.739,0" stroke="#004D1D" stroke-width="2" opacity="0.7"/><path aria-label="Obesity Level: Obesity_Type_II; Weight (kg): 98.54302; Obesity: Obesity_Type_II; Weight: 98.54302" role="graphics-symbol" aria-roledescription="point" transform="translate(235.7142857142857,135.76163333333332)" d="M2.739,0A2.739,2.739,0,1,1,-2.739,0A2.739,2.739,0,1,1,2.739,0" stroke="#004D1D" stroke-width="2" opacity="0.7"/></g><g class="mark-rule role-mark layer_0_layer_1_layer_0_marks" aria-hidden="true"><line transform="translate(64.28571428571428,229.5)" x2="0" y2="-21.166666666666686" stroke="green"/><line transform="translate(107.14285714285714,211.66666666666666)" x2="0" y2="-25.253073333333333" stroke="green"/><line transform="translate(149.99999999999997,191.97648499999997)" x2="0" y2="-22.02574041666665" stroke="green"/><line transform="translate(192.85714285714283,174.99999999999997)" x2="0" y2="-11.90102083333332" stroke="green"/><line transform="translate(21.428571428571427,235)" x2="0" y2="-9.427574583333353" stroke="green"/><line transform="translate(235.7142857142857,134.0997966666667)" x2="0" y2="-20.783970000000025" stroke="green"/><line transform="translate(278.57142857142856,130)" x2="0" y2="-12.486390833333317" stroke="green"/></g><g class="mark-rule role-mark layer_0_layer_1_layer_1_marks" aria-hidden="true"><line transform="translate(64.28571428571428,185.83333333333334)" x2="0" y2="-30.83333333333337" stroke="green"/><line transform="translate(107.14285714285714,166.66666666666669)" x2="0" y2="-18.333333333333343" stroke="green"/><line transform="translate(149.99999999999997,155.24946333333332)" x2="0" y2="-21.603534999999994" stroke="green"/><line transform="translate(192.85714285714283,127.10267583333334)" x2="0" y2="-35.436009166666665" stroke="green"/><line transform="translate(21.428571428571427,210.55359541666664)" x2="0" y2="-18.88692874999998" stroke="green"/><line transform="translate(235.7142857142857,98.65714166666667)" x2="0" y2="-15.323808333333332" stroke="green"/><line transform="translate(278.57142857142856,77.49536666666665)" x2="0" y2="-52.59081499999996" stroke="green"/></g><g class="mark-rect role-mark layer_1_layer_0_marks" role="graphics-object" aria-roledescription="rect mark container"><path aria-label="Obesity Level: Normal_Weight; Weight (kg): 55; upper_box_Weight: 68.5; Max of Weight (kg): 87; Q3 of Weight (kg): 68.5; Median of Weight (kg): 61; Q1 of Weight (kg): 55; Min of Weight (kg): 42.3" role="graphics-symbol" aria-roledescription="box" d="M57.28571428571428,185.83333333333334h14v22.49999999999997h-14Z" fill="#88E788"/><path aria-label="Obesity Level: Overweight_Level_I; Weight (kg): 68.151844; upper_box_Weight: 80; Max of Weight (kg): 91; Q3 of Weight (kg): 80; Median of Weight (kg): 75; Q1 of Weight (kg): 68.151844; Min of Weight (kg): 53" role="graphics-symbol" aria-roledescription="box" d="M100.14285714285714,166.66666666666669h14v19.74692666666664h-14Z" fill="#1A9F3D"/><path aria-label="Obesity Level: Overweight_Level_II; Weight (kg): 78.02955325; upper_box_Weight: 86.850322; Max of Weight (kg): 102; Q3 of Weight (kg): 86.850322; Median of Weight (kg): 82; Q1 of Weight (kg): 78.02955325; Min of Weight (kg): 60" role="graphics-symbol" aria-roledescription="box" d="M142.99999999999997,155.24946333333332h14v14.701281249999994h-14Z" fill="#1A9F3D"/><path aria-label="Obesity Level: Obesity_Type_I; Weight (kg): 82.1406125; upper_box_Weight: 103.7383945; Max of Weight (kg): 125; Q3 of Weight (kg): 103.7383945; Median of Weight (kg): 90.744965; Q1 of Weight (kg): 82.1406125; Min of Weight (kg): 75" role="graphics-symbol" aria-roledescription="box" d="M185.85714285714283,127.10267583333334h14v35.996303333333316h-14Z" fill="#004D1D"/><path aria-label="Obesity Level: Insufficient_Weight; Weight (kg): 44.65654475; upper_box_Weight: 53.66784275; Max of Weight (kg): 65; Q3 of Weight (kg): 53.66784275; Median of Weight (kg): 50; Q1 of Weight (kg): 44.65654475; Min of Weight (kg): 39" role="graphics-symbol" aria-roledescription="box" d="M14.428571428571427,210.55359541666664h14v15.018830000000008h-14Z" fill="#cdffcd"/><path aria-label="Obesity Level: Obesity_Type_II; Weight (kg): 112.010504; upper_box_Weight: 120.805715; Max of Weight (kg): 130; Q3 of Weight (kg): 120.805715; Median of Weight (kg): 117.792268; Q1 of Weight (kg): 112.010504; Min of Weight (kg): 93" role="graphics-symbol" aria-roledescription="box" d="M228.7142857142857,98.65714166666667h14v14.658684999999991h-14Z" fill="#004D1D"/><path aria-label="Obesity Level: Obesity_Type_III; Weight (kg): 109.4918345; upper_box_Weight: 133.50278; Max of Weight (kg): 173; Q3 of Weight (kg): 133.50278; Median of Weight (kg): 112.049308; Q1 of Weight (kg): 109.4918345; Min of Weight (kg): 102" role="graphics-symbol" aria-roledescription="box" d="M271.57142857142856,77.49536666666665h14v40.01824250000003h-14Z" fill="#004D1D"/></g><g class="mark-rect role-mark layer_1_layer_1_marks" aria-hidden="true"><path d="M57.28571428571428,197.83333333333331h14v1h-14Z" fill="white" opacity="0.7"/><path d="M100.14285714285714,174.49999999999997h14v1h-14Z" fill="white" opacity="0.7"/><path d="M142.99999999999997,162.83333333333334h14v1h-14Z" fill="white" opacity="0.7"/><path d="M185.85714285714283,148.25839166666668h14v1h-14Z" fill="white" opacity="0.7"/><path d="M14.428571428571427,216.16666666666666h14v1h-14Z" fill="white" opacity="0.7"/><path d="M228.7142857142857,103.17955333333332h14v1h-14Z" fill="white" opacity="0.7"/><path d="M271.57142857142856,112.75115333333335h14v1h-14Z" fill="white" opacity="0.7"/></g><g class="mark-group role-legend" role="graphics-symbol" aria-roledescription="legend" aria-label="Symbol legend titled 'Obesity Level' for fill color and stroke color with 7 values: Insufficient_Weight, Normal_Weight, Overweight_Level_I, Overweight_Level_II, Obesity_Type_I, Obesity_Type_II, Obesity_Type_III"><g transform="translate(318,0)"><path class="background" aria-hidden="true" d="M0,0h108v125h-108Z" pointer-events="none"/><g><g class="mark-group role-legend-entry"><g transform="translate(0,16)"><path class="background" aria-hidden="true" d="M0,0h0v0h0Z" pointer-events="none"/><g><g class="mark-group role-scope" role="graphics-object" aria-roledescription="group mark container"><g transform="translate(0,0)"><path class="background" aria-hidden="true" d="M0,0h107.162109375v12.5h-107.162109375Z" pointer-events="none" opacity="1"/><g><g class="mark-symbol role-legend-symbol" pointer-events="none"><path transform="translate(6,6)" d="M5,0A5,5,0,1,1,-5,0A5,5,0,1,1,5,0" fill="#cdffcd" stroke="#cdffcd" stroke-width="1.5" opacity="0.7"/></g><g class="mark-text role-legend-label" pointer-events="none"><text text-anchor="start" transform="translate(16,9)" font-family="sans-serif" font-size="10px" fill="#000" opacity="1">Insufficient_Weight</text></g></g><path class="foreground" aria-hidden="true" d="" pointer-events="none" display="none"/></g><g transform="translate(0,16)"><path class="background" aria-hidden="true" d="M0,0h107.162109375v12.5h-107.162109375Z" pointer-events="none" opacity="1"/><g><g class="mark-symbol role-legend-symbol" pointer-events="none"><path transform="translate(6,6)" d="M5,0A5,5,0,1,1,-5,0A5,5,0,1,1,5,0" fill="#88E788" stroke="#88E788" stroke-width="1.5" opacity="0.7"/></g><g class="mark-text role-legend-label" pointer-events="none"><text text-anchor="start" transform="translate(16,9)" font-family="sans-serif" font-size="10px" fill="#000" opacity="1">Normal_Weight</text></g></g><path class="foreground" aria-hidden="true" d="" pointer-events="none" display="none"/></g><g transform="translate(0,32)"><path class="background" aria-hidden="true" d="M0,0h107.162109375v12.5h-107.162109375Z" pointer-events="none" opacity="1"/><g><g class="mark-symbol role-legend-symbol" pointer-events="none"><path transform="translate(6,6)" d="M5,0A5,5,0,1,1,-5,0A5,5,0,1,1,5,0" fill="#1A9F3D" stroke="#1A9F3D" stroke-width="1.5" opacity="0.7"/></g><g class="mark-text role-legend-label" pointer-events="none"><text text-anchor="start" transform="translate(16,9)" font-family="sans-serif" font-size="10px" fill="#000" opacity="1">Overweight_Level_I</text></g></g><path class="foreground" aria-hidden="true" d="" pointer-events="none" display="none"/></g><g transform="translate(0,48)"><path class="background" aria-hidden="true" d="M0,0h107.162109375v12.5h-107.162109375Z" pointer-events="none" opacity="1"/><g><g class="mark-symbol role-legend-symbol" pointer-events="none"><path transform="translate(6,6)" d="M5,0A5,5,0,1,1,-5,0A5,5,0,1,1,5,0" fill="#1A9F3D" stroke="#1A9F3D" stroke-width="1.5" opacity="0.7"/></g><g class="mark-text role-legend-label" pointer-events="none"><text text-anchor="start" transform="translate(16,9)" font-family="sans-serif" font-size="10px" fill="#000" opacity="1">Overweight_Level_II</text></g></g><path class="foreground" aria-hidden="true" d="" pointer-events="none" display="none"/></g><g transform="translate(0,64)"><path class="background" aria-hidden="true" d="M0,0h107.162109375v12.5h-107.162109375Z" pointer-events="none" opacity="1"/><g><g class="mark-symbol role-legend-symbol" pointer-events="none"><path transform="translate(6,6)" d="M5,0A5,5,0,1,1,-5,0A5,5,0,1,1,5,0" fill="#004D1D" stroke="#004D1D" stroke-width="1.5" opacity="0.7"/></g><g class="mark-text role-legend-label" pointer-events="none"><text text-anchor="start" transform="translate(16,9)" font-family="sans-serif" font-size="10px" fill="#000" opacity="1">Obesity_Type_I</text></g></g><path class="foreground" aria-hidden="true" d="" pointer-events="none" display="none"/></g><g transform="translate(0,80)"><path class="background" aria-hidden="true" d="M0,0h107.162109375v12.5h-107.162109375Z" pointer-events="none" opacity="1"/><g><g class="mark-symbol role-legend-symbol" pointer-events="none"><path transform="translate(6,6)" d="M5,0A5,5,0,1,1,-5,0A5,5,0,1,1,5,0" fill="#004D1D" stroke="#004D1D" stroke-width="1.5" opacity="0.7"/></g><g class="mark-text role-legend-label" pointer-events="none"><text text-anchor="start" transform="translate(16,9)" font-family="sans-serif" font-size="10px" fill="#000" opacity="1">Obesity_Type_II</text></g></g><path class="foreground" aria-hidden="true" d="" pointer-events="none" display="none"/></g><g transform="translate(0,96)"><path class="background" aria-hidden="true" d="M0,0h107.162109375v12.5h-107.162109375Z" pointer-events="none" opacity="1"/><g><g class="mark-symbol role-legend-symbol" pointer-events="none"><path transform="translate(6,6)" d="M5,0A5,5,0,1,1,-5,0A5,5,0,1,1,5,0" fill="#004D1D" stroke="#004D1D" stroke-width="1.5" opacity="0.7"/></g><g class="mark-text role-legend-label" pointer-events="none"><text text-anchor="start" transform="translate(16,9)" font-family="sans-serif" font-size="10px" fill="#000" opacity="1">Obesity_Type_III</text></g></g><path class="foreground" aria-hidden="true" d="" pointer-events="none" display="none"/></g></g></g><path class="foreground" aria-hidden="true" d="" pointer-events="none" display="none"/></g></g><g class="mark-text role-legend-title" pointer-events="none"><text text-anchor="start" transform="translate(0,9)" font-family="sans-serif" font-size="11px" font-weight="bold" fill="#000" opacity="1">Obesity Level</text></g></g><path class="foreground" aria-hidden="true" d="" pointer-events="none" display="none"/></g></g><g class="mark-group role-title"><g transform="translate(150,-22)"><path class="background" aria-hidden="true" d="M0,0h0v0h0Z" pointer-events="none"/><g><g class="mark-text role-title-text" role="graphics-symbol" aria-roledescription="title" aria-label="Title text 'Box Plot Between Obesity Level and Weight'" pointer-events="none"><text text-anchor="middle" transform="translate(0,10)" font-family="sans-serif" font-size="13px" font-weight="bold" fill="#000" opacity="1">Box Plot Between Obesity Level and Weight</text></g></g><path class="foreground" aria-hidden="true" d="" pointer-events="none" display="none"/></g></g></g><path class="foreground" aria-hidden="true" d="" display="none"/></g></g></g></svg>